<svg width="16" height="16" fill="none" viewBox="0 0 16 16" xmlns="http://www.w3.org/2000/svg"><path fill="currentColor" d="M13.02 5.333 9.333 1.647A.5.5 0 0 0 8.98 1.5H7.333A1.833 1.833 0 0 0 5.5 3.333v.834h-.833A1.833 1.833 0 0 0 2.833 6v6.667A1.833 1.833 0 0 0 4.667 14.5h4.666a1.833 1.833 0 0 0 1.834-1.833v-.834h.166A1.833 1.833 0 0 0 13.167 10V5.667a.5.5 0 0 0-.147-.334M9.5 3.207l1.96 1.96H9.5zm.667 9.46a.833.833 0 0 1-.834.833H4.667a.833.833 0 0 1-.834-.833V6a.833.833 0 0 1 .834-.833H5.5V10a1.834 1.834 0 0 0 1.833 1.833h2.834zm1.166-1.834h-4A.834.834 0 0 1 6.5 10V3.333a.833.833 0 0 1 .833-.833H8.5v3.167a.507.507 0 0 0 .5.5h3.167V10a.833.833 0 0 1-.834.833"/></svg>