<svg width="20" height="20" fill="none" viewBox="0 0 20 20" xmlns="http://www.w3.org/2000/svg"><path stroke="currentColor" stroke-linecap="round" stroke-linejoin="round" stroke-width="1.5" d="m13.333 4.167 2.5-2.5m0 0 2.5 2.5m-2.5-2.5v5M10.417 2.5H6.5c-1.4 0-2.1 0-2.635.272a2.5 2.5 0 0 0-1.093 1.093C2.5 4.4 2.5 5.1 2.5 6.5v7c0 1.4 0 2.1.272 2.635a2.5 2.5 0 0 0 1.093 1.092C4.4 17.5 5.1 17.5 6.5 17.5h7.667c.775 0 1.162 0 1.48-.085a2.5 2.5 0 0 0 1.768-1.768c.085-.318.085-.705.085-1.48M8.75 7.083a1.667 1.667 0 1 1-3.333 0 1.667 1.667 0 0 1 3.333 0m3.742 2.849-7.05 6.408c-.396.36-.594.54-.612.697a.42.42 0 0 0 .14.36c.117.103.385.103.921.103h7.822c1.2 0 1.8 0 2.27-.201a2.5 2.5 0 0 0 1.316-1.316c.201-.47.201-1.07.201-2.27 0-.403 0-.605-.044-.793a1.7 1.7 0 0 0-.312-.648c-.119-.152-.276-.278-.591-.53L14.22 9.877c-.315-.252-.473-.378-.646-.423a.83.83 0 0 0-.465.015c-.17.055-.32.191-.618.463Z"/></svg>