<svg width="20" height="20" fill="none" viewBox="0 0 20 20" xmlns="http://www.w3.org/2000/svg"><path stroke="currentColor" stroke-linecap="round" stroke-linejoin="round" stroke-width="1.25" d="m6.458 11.542 2 2m-2-2s1.181-2.952 2.862-5m-2.862 5c-4.349-1.088-.441-5 2.862-5m-.862 7s2.952-1.181 5-2.862m-5 2.862c1.088 4.348 5 .441 5-2.862M9.32 6.542c1.7-2.072 4.502-3 7.138-3 0 2.636-.928 5.437-3 7.138m-1.416-2.8.589-.588m-8.032 6.521c-.793.668-1.057 2.65-1.057 2.65s1.976-.265 2.642-1.06c.375-.446.37-1.129-.047-1.542a1.16 1.16 0 0 0-1.538-.048"/></svg>