<svg width="20" height="20" fill="none" viewBox="0 0 20 20" xmlns="http://www.w3.org/2000/svg"><g fill="currentColor" clip-path="url(#wallet_svg__a)"><path d="M17.778 8.333h-.556V5a.556.556 0 0 0-.555-.556H3.333a.555.555 0 0 1-.555-.455v-.2a.555.555 0 0 1 .555-.456h13.1a.556.556 0 0 0 0-1.11h-13.1a1.667 1.667 0 0 0-1.666 1.666 2 2 0 0 0 0 .2v11.428a2.28 2.28 0 0 0 2.294 2.26h12.706a.555.555 0 0 0 .555-.555V13.89h.556a.555.555 0 0 0 .555-.556V8.89a.556.556 0 0 0-.555-.556m-1.667 8.334H3.961a1.17 1.17 0 0 1-1.183-1.15V5.489c.18.052.368.075.555.067h12.778v2.777h-3.889a2.778 2.778 0 1 0 0 5.556h3.89zm1.111-3.89h-5a1.667 1.667 0 1 1 0-3.333h5z"/><path d="M12.783 11.944a.833.833 0 1 0 0-1.666.833.833 0 0 0 0 1.666"/></g><defs><clipPath id="wallet_svg__a"><path d="M0 0h20v20H0z"/></clipPath></defs></svg>